<svg width="0" height="0" class="hidden">
  <symbol fill="none" xmlns="http://www.w3.org/2000/svg" viewBox="0 0 19 15" id="twitter">
    <path fill-rule="evenodd" clip-rule="evenodd" d="M8.90958 4.42077L8.86995 3.80247C8.75115 2.20003 9.79388 0.736367 11.4438 0.16862C12.051 -0.033286 13.0805 -0.0585242 13.7537 0.118143C14.0177 0.193858 14.5193 0.446165 14.8756 0.673309L15.5224 1.0897L16.2352 0.875215C16.6312 0.761605 17.1592 0.572356 17.3967 0.446165C17.6211 0.332631 17.8191 0.269498 17.8191 0.307392C17.8191 0.52188 17.3307 1.25371 16.9216 1.65745C16.3672 2.22527 16.5256 2.27575 17.6475 1.89717C18.3207 1.68269 18.3338 1.68269 18.2019 1.92241C18.1226 2.0486 17.7135 2.49024 17.2779 2.89397C16.5387 3.58799 16.4992 3.6637 16.4992 4.2441C16.4992 5.13995 16.0504 7.00735 15.6016 8.02938C14.77 9.94726 12.9881 11.9282 11.2062 12.925C8.69839 14.3256 5.35891 14.6789 2.54748 13.8587C1.61034 13.5811 0 12.8745 0 12.7484C0 12.7105 0.488346 12.66 1.08236 12.6475C2.32308 12.6222 3.5638 12.2941 4.61975 11.7137L5.33257 11.31L4.51415 11.045C3.35261 10.6664 2.30987 9.79583 2.04593 8.9757C1.96667 8.71074 1.99309 8.69808 2.73225 8.69808L3.49783 8.6855L2.85105 8.3953C2.08547 8.02938 1.38594 7.41109 1.04274 6.78021C0.79192 6.32599 0.475215 5.17777 0.5676 5.08947C0.59394 5.05165 0.871175 5.12729 1.18796 5.22824C2.09868 5.54368 2.21749 5.46797 1.68951 4.93804C0.699535 3.97914 0.39596 2.55329 0.871175 1.20324L1.09557 0.597594L1.96667 1.41772C3.74865 3.07064 5.84733 4.05485 8.24959 4.34506L8.90958 4.42077Z" fill="white"></path>
  </symbol>
  <symbol fill="none" xmlns="http://www.w3.org/2000/svg" viewBox="0 0 16 16" id="instagram">
    <path d="M8.00179 3.69832C5.73162 3.69832 3.9005 5.43612 3.9005 7.59058C3.9005 9.74504 5.73162 11.4828 8.00179 11.4828C10.2719 11.4828 12.1031 9.74504 12.1031 7.59058C12.1031 5.43612 10.2719 3.69832 8.00179 3.69832ZM8.00179 10.1211C6.53475 10.1211 5.33542 8.98623 5.33542 7.59058C5.33542 6.19492 6.53118 5.0601 8.00179 5.0601C9.47239 5.0601 10.6682 6.19492 10.6682 7.59058C10.6682 8.98623 9.46882 10.1211 8.00179 10.1211V10.1211ZM13.2274 3.53911C13.2274 4.04385 12.7991 4.44696 12.2708 4.44696C11.739 4.44696 11.3142 4.04046 11.3142 3.53911C11.3142 3.03776 11.7426 2.63125 12.2708 2.63125C12.7991 2.63125 13.2274 3.03776 13.2274 3.53911ZM15.9438 4.46051C15.8831 3.24439 15.5904 2.16716 14.6516 1.27963C13.7165 0.392105 12.5814 0.114329 11.2999 0.0533534C9.97925 -0.0177844 6.02075 -0.0177844 4.70006 0.0533534C3.4222 0.110941 2.28712 0.388717 1.34835 1.27625C0.409593 2.16378 0.120468 3.24101 0.0562186 4.45712C-0.0187395 5.7105 -0.0187395 9.46726 0.0562186 10.7206C0.116899 11.9368 0.409593 13.014 1.34835 13.9015C2.28712 14.789 3.41863 15.0668 4.70006 15.1278C6.02075 15.1989 9.97925 15.1989 11.2999 15.1278C12.5814 15.0702 13.7165 14.7924 14.6516 13.9015C15.5868 13.014 15.8795 11.9368 15.9438 10.7206C16.0187 9.46726 16.0187 5.71389 15.9438 4.46051V4.46051ZM14.2376 12.0655C13.9592 12.7294 13.4202 13.241 12.717 13.5086C11.664 13.9049 9.16542 13.8134 8.00179 13.8134C6.83815 13.8134 4.33597 13.9015 3.28656 13.5086C2.58695 13.2443 2.04796 12.7328 1.76598 12.0655C1.34835 11.0662 1.44473 8.69491 1.44473 7.59058C1.44473 6.48625 1.35192 4.1116 1.76598 3.11567C2.0444 2.45171 2.58338 1.9402 3.28656 1.67259C4.33954 1.27625 6.83815 1.36771 8.00179 1.36771C9.16542 1.36771 11.6676 1.27963 12.717 1.67259C13.4166 1.93681 13.9556 2.44833 14.2376 3.11567C14.6552 4.11499 14.5588 6.48625 14.5588 7.59058C14.5588 8.69491 14.6552 11.0696 14.2376 12.0655Z" fill="white"></path>
  </symbol>
  <symbol fill="none" xmlns="http://www.w3.org/2000/svg" viewBox="0 0 10 19" id="fb">
    <path d="M6.64956 19V9.49889H9.60795L10 6.22475H6.64956L6.65459 4.58601C6.65459 3.73207 6.74611 3.27451 8.12959 3.27451H9.97906V0H7.02025C3.46625 0 2.21533 1.58831 2.21533 4.25934V6.22512H0V9.49926H2.21533V19H6.64956Z" fill="white"></path>
  </symbol>
</svg>